<?xml version="1.0" encoding="utf-8"?>
<!-- Generator: Adobe Illustrator 25.2.0, SVG Export Plug-In . SVG Version: 6.00 Build 0)  -->
<svg version="1.1" id="Capa_1" xmlns="http://www.w3.org/2000/svg" xmlns:xlink="http://www.w3.org/1999/xlink" x="0px" y="0px"
	 viewBox="0 0 900 700" style="enable-background:new 0 0 900 700;" xml:space="preserve">
<style type="text/css">
	.st0{fill:#FFFFFF;}
	.st1{fill:#669999;}
	.st2{fill:#9EC1A3;}
	.st3{fill:#1F363D;}
	.st4{fill:#40798C;}
	.st5{enable-background:new    ;}
	.st6{font-family:'ArialMT';}
	.st7{font-size:10px;}
	.st8{font-family:'Arial-BoldMT';}
</style>
<rect id="backgorund" class="st0" width="900" height="700"/>
<path class="st1" d="M451,125.3c124.1,0.6,224.2,101.6,223.7,225.7c-0.1,30.9-6.6,61.4-19.1,89.7l-101.7-45.4
	c25-57.4-1.2-124.2-58.6-149.2c-14-6.1-29-9.3-44.3-9.4V125.3z"/>
<path class="st2" d="M654.7,442.5c-51.1,113.1-184.2,163.3-297.2,112.2c-2.6-1.2-5.1-2.4-7.7-3.6l50.1-99.4
	c56.1,27.7,124.1,4.6,151.8-51.6c0.5-1,1-2,1.4-3L654.7,442.5z"/>
<path class="st3" d="M348,550.2C237.5,493.9,193.5,358.6,249.8,248c11.9-23.3,27.8-44.4,46.9-62.3l75.6,81.7
	c-45.6,42.9-47.7,114.6-4.8,160.2c8.8,9.4,19.2,17.2,30.6,23.1L348,550.2z"/>
<path class="st4" d="M298.2,184.4c41.2-37.8,95-58.8,150.8-59.1v111.3c-27.8,0.2-54.6,10.7-75.2,29.5L298.2,184.4z"/>
<path class="st1" d="M451,12c6.3,0,12.7,0.2,19,0.6l-6.9,111.1c-4-0.2-8.1-0.4-12.1-0.4V12z"/>
<path class="st1" d="M472,12.7c6.3,0.4,12.6,1,18.9,1.8L477.1,125c-4-0.5-8-0.9-12-1.1L472,12.7z"/>
<path class="st1" d="M492.9,14.7c6.3,0.8,12.6,1.8,18.8,2.9l-20.7,109.4c-4-0.7-8-1.4-12-1.9L492.9,14.7z"/>
<path class="st1" d="M513.7,18.1c6.2,1.2,12.4,2.6,18.6,4.1l-27.4,107.9c-3.9-1-7.9-1.8-11.8-2.6L513.7,18.1z"/>
<path class="st1" d="M534.2,22.7c6.1,1.6,12.2,3.3,18.3,5.3l-34.1,106c-3.8-1.2-7.7-2.3-11.6-3.3L534.2,22.7z"/>
<path class="st1" d="M554.4,28.5c6,2,12,4.1,17.9,6.4l-40.6,103.7c-3.8-1.5-7.6-2.8-11.4-4.1L554.4,28.5z"/>
<path class="st1" d="M574.2,35.6c5.9,2.3,11.7,4.8,17.5,7.5l-47,100.9c-3.7-1.7-7.4-3.3-11.1-4.8L574.2,35.6z"/>
<path class="st1" d="M593.5,44c5.7,2.7,11.4,5.5,17,8.6l-53.1,97.8c-3.6-1.9-7.2-3.7-10.8-5.4L593.5,44z"/>
<path class="st1" d="M612.2,53.5c5.6,3,11,6.2,16.4,9.6l-59.1,94.3c-3.4-2.1-6.9-4.2-10.4-6.1L612.2,53.5z"/>
<path class="st1" d="M630.4,64.1c5.4,3.4,10.6,6.9,15.8,10.6l-64.9,90.5c-3.3-2.3-6.6-4.6-10-6.7L630.4,64.1z"/>
<path class="st1" d="M647.8,75.9c5.1,3.7,10.2,7.6,15.1,11.6l-70.4,86.3c-3.1-2.5-6.3-5-9.6-7.4L647.8,75.9z"/>
<path class="st1" d="M664.4,88.7c4.9,4,9.7,8.2,14.4,12.5l-75.6,81.7c-3-2.7-6-5.4-9.1-7.9L664.4,88.7z"/>
<path class="st1" d="M680.3,102.6c4.6,4.3,9.2,8.8,13.6,13.3l-80.5,76.9c-2.8-2.9-5.7-5.7-8.6-8.5L680.3,102.6z"/>
<path class="st1" d="M695.2,117.4c4.4,4.6,8.6,9.3,12.7,14.2l-85.2,71.7c-2.6-3.1-5.3-6.1-8.1-9L695.2,117.4z"/>
<path class="st1" d="M709.2,133.1c4.1,4.9,8,9.8,11.8,14.9l-89.5,66.3c-2.4-3.2-4.9-6.4-7.5-9.5L709.2,133.1z"/>
<path class="st1" d="M722.2,149.6c3.8,5.1,7.4,10.3,10.8,15.6l-93.4,60.6c-2.2-3.4-4.5-6.7-6.9-9.9L722.2,149.6z"/>
<path class="st1" d="M734.1,166.9c3.4,5.3,6.7,10.8,9.9,16.3l-97,54.7c-2-3.5-4.1-7-6.3-10.4L734.1,166.9z"/>
<path class="st1" d="M744.9,184.9c3.1,5.5,6,11.2,8.8,16.9l-100.2,48.5c-1.8-3.6-3.6-7.2-5.6-10.7L744.9,184.9z"/>
<path class="st1" d="M754.6,203.6c2.7,5.7,5.3,11.5,7.8,17.4l-103,42.2c-1.5-3.7-3.2-7.4-4.9-11L754.6,203.6z"/>
<path class="st1" d="M763.1,222.8c2.4,5.9,4.6,11.8,6.7,17.8l-105.4,35.7c-1.3-3.8-2.7-7.6-4.2-11.3L763.1,222.8z"/>
<path class="st1" d="M770.5,242.5c2,6,3.9,12.1,5.5,18.2l-107.5,29.1c-1.1-3.9-2.2-7.7-3.5-11.6L770.5,242.5z"/>
<path class="st1" d="M776.5,262.6c1.6,6.1,3.1,12.3,4.4,18.5l-109.1,22.4c-0.8-3.9-1.8-7.9-2.8-11.8L776.5,262.6z"/>
<path class="st1" d="M781.3,283.1c1.3,6.2,2.3,12.5,3.2,18.7l-110.2,15.5c-0.6-4-1.3-8-2.1-11.9L781.3,283.1z"/>
<path class="st1" d="M784.8,303.8c0.9,6.3,1.6,12.6,2.1,18.9l-111,8.6c-0.3-4-0.8-8-1.3-12L784.8,303.8z"/>
<path class="st1" d="M787.1,324.7c0.5,6.3,0.8,12.7,0.9,19l-111.3,1.7c-0.1-4-0.3-8.1-0.6-12.1L787.1,324.7z"/>
<path class="st1" d="M788,345.7c0.1,6.3,0,12.7-0.3,19l-111.2-5.2c0.2-4,0.2-8.1,0.2-12.1L788,345.7z"/>
<path class="st1" d="M787.6,366.8c-0.3,6.3-0.8,12.7-1.5,19l-110.7-12.1c0.4-4,0.7-8,0.9-12.1L787.6,366.8z"/>
<path class="st1" d="M785.9,387.7c-0.7,6.3-1.6,12.6-2.7,18.8l-109.7-19c0.7-4,1.2-8,1.7-12L785.9,387.7z"/>
<path class="st1" d="M782.9,408.5c-1.1,6.2-2.4,12.5-3.8,18.6l-108.3-25.7c0.9-3.9,1.7-7.9,2.4-11.9L782.9,408.5z"/>
<path class="st1" d="M778.6,429.1c-1.5,6.2-3.1,12.3-5,18.4l-106.5-32.4c1.2-3.9,2.2-7.8,3.2-11.7L778.6,429.1z"/>
<path class="st1" d="M773.1,449.4c-1.9,6.1-3.9,12.1-6.1,18l-104.3-39c1.4-3.8,2.7-7.6,3.9-11.5L773.1,449.4z"/>
<path class="st1" d="M766.3,469.3c-2.2,5.9-4.6,11.8-7.2,17.6l-101.7-45.4c1.6-3.7,3.2-7.4,4.6-11.2L766.3,469.3z"/>
<path class="st2" d="M758.2,488.7c-2.6,5.8-5.4,11.5-8.3,17.1l-98.6-51.6c1.9-3.6,3.6-7.2,5.3-10.9L758.2,488.7z"/>
<path class="st2" d="M749,507.6c-3,5.6-6.1,11.1-9.3,16.6l-95.2-57.7c2.1-3.5,4.1-7,5.9-10.5L749,507.6z"/>
<path class="st2" d="M738.6,525.9c-3.3,5.4-6.8,10.7-10.4,16l-91.5-63.5c2.3-3.3,4.5-6.7,6.6-10.2L738.6,525.9z"/>
<path class="st2" d="M727.1,543.5c-3.6,5.2-7.4,10.3-11.3,15.3l-87.4-69c2.5-3.2,4.9-6.4,7.2-9.7L727.1,543.5z"/>
<path class="st2" d="M714.6,560.3c-3.9,5-8,9.8-12.3,14.6l-82.9-74.3c2.7-3,5.3-6.1,7.8-9.3L714.6,560.3z"/>
<path class="st2" d="M701,576.4c-4.2,4.7-8.6,9.3-13.1,13.8l-78.1-79.3c2.9-2.8,5.6-5.8,8.4-8.8L701,576.4z"/>
<path class="st2" d="M686.4,591.6c-4.5,4.4-9.2,8.7-14,12.9l-73-84c3-2.7,6-5.4,8.9-8.2L686.4,591.6z"/>
<path class="st2" d="M670.9,605.8c-4.8,4.1-9.7,8.2-14.7,12l-67.7-88.4c3.2-2.5,6.3-5,9.4-7.6L670.9,605.8z"/>
<path class="st2" d="M654.6,619c-5,3.8-10.2,7.5-15.5,11.1l-62-92.5c3.3-2.3,6.6-4.6,9.8-7.1L654.6,619z"/>
<path class="st2" d="M637.5,631.2c-5.3,3.5-10.7,6.9-16.1,10.1l-56.2-96.1c3.5-2.1,6.9-4.2,10.3-6.4L637.5,631.2z"/>
<path class="st2" d="M619.7,642.3c-5.5,3.2-11.1,6.2-16.7,9.1L552.9,552c3.6-1.8,7.1-3.8,10.6-5.8L619.7,642.3z"/>
<path class="st2" d="M601.1,652.3c-5.7,2.8-11.4,5.5-17.2,8L540.1,558c3.7-1.6,7.4-3.3,11-5.1L601.1,652.3z"/>
<path class="st2" d="M582.1,661.1c-5.8,2.5-11.7,4.8-17.7,6.9L527,563.2c3.8-1.4,7.6-2.8,11.3-4.4L582.1,661.1z"/>
<path class="st2" d="M562.5,668.7c-6,2.1-12,4.1-18.1,5.8l-30.8-107c3.9-1.1,7.7-2.4,11.5-3.7L562.5,668.7z"/>
<path class="st2" d="M542.4,675.1c-6.1,1.7-12.2,3.3-18.4,4.7l-24.1-108.7c3.9-0.9,7.8-1.9,11.7-3L542.4,675.1z"/>
<path class="st2" d="M522,680.2c-6.2,1.4-12.4,2.5-18.7,3.5l-17.2-110c4-0.6,7.9-1.4,11.9-2.2L522,680.2z"/>
<path class="st2" d="M501.4,684.1c-6.3,1-12.6,1.8-18.9,2.4l-10.4-110.8c4-0.4,8-0.9,12-1.5L501.4,684.1z"/>
<path class="st2" d="M480.5,686.6c-6.3,0.6-12.6,1-19,1.2L458,576.5c4-0.1,8.1-0.4,12.1-0.8L480.5,686.6z"/>
<path class="st2" d="M459.5,687.9c-6.3,0.2-12.7,0.2-19,0l3.5-111.3c4,0.1,8.1,0.1,12.1,0L459.5,687.9z"/>
<path class="st2" d="M438.5,687.8c-6.3-0.2-12.7-0.6-19-1.2l10.4-110.8c4,0.4,8,0.6,12.1,0.8L438.5,687.8z"/>
<path class="st2" d="M417.5,686.4c-6.3-0.6-12.6-1.4-18.9-2.4l17.2-110c4,0.6,8,1.1,12,1.5L417.5,686.4z"/>
<path class="st2" d="M396.7,683.8c-6.3-1-12.5-2.2-18.7-3.5L402,571.5c3.9,0.9,7.9,1.6,11.9,2.2L396.7,683.8z"/>
<path class="st2" d="M376,679.8c-6.2-1.4-12.3-3-18.4-4.7l30.8-107c3.9,1.1,7.8,2.1,11.7,3L376,679.8z"/>
<path class="st2" d="M355.6,674.6c-6.1-1.8-12.1-3.7-18.1-5.8l37.4-104.9c3.8,1.3,7.6,2.6,11.5,3.7L355.6,674.6z"/>
<path class="st2" d="M335.7,668.1c-6-2.1-11.9-4.5-17.7-6.9l43.8-102.4c3.7,1.6,7.5,3,11.3,4.4L335.7,668.1z"/>
<path class="st2" d="M316.1,660.3c-5.8-2.5-11.6-5.2-17.2-8l50.1-99.4c3.6,1.8,7.3,3.5,11,5.1L316.1,660.3z"/>
<path class="st3" d="M297.1,651.4c-5.7-2.9-11.2-5.9-16.7-9.1l56.2-96.1c3.5,2,7,3.9,10.6,5.8L297.1,651.4z"/>
<path class="st3" d="M278.6,641.3c-5.5-3.2-10.8-6.6-16.1-10.1l62-92.5c3.4,2.2,6.8,4.4,10.3,6.4L278.6,641.3z"/>
<path class="st3" d="M260.8,630.1c-5.3-3.5-10.4-7.2-15.5-11.1l67.7-88.4c3.2,2.4,6.5,4.8,9.8,7.1L260.8,630.1z"/>
<path class="st3" d="M243.8,617.8c-5-3.9-9.9-7.9-14.7-12l73-84c3.1,2.6,6.2,5.2,9.4,7.6L243.8,617.8z"/>
<path class="st3" d="M227.5,604.5c-4.8-4.2-9.4-8.5-14-12.9l78.1-79.3c2.9,2.8,5.8,5.6,8.9,8.2L227.5,604.5z"/>
<path class="st3" d="M212.2,590.2c-4.5-4.5-8.9-9.1-13.1-13.8l82.9-74.3c2.7,3,5.5,5.9,8.4,8.8L212.2,590.2z"/>
<path class="st3" d="M197.7,574.9c-4.2-4.7-8.3-9.6-12.3-14.6l87.4-69c2.5,3.2,5.1,6.2,7.8,9.3L197.7,574.9z"/>
<path class="st3" d="M184.2,558.8c-3.9-5-7.7-10.1-11.3-15.3l91.5-63.5c2.3,3.3,4.7,6.5,7.2,9.7L184.2,558.8z"/>
<path class="st3" d="M171.7,541.8c-3.6-5.2-7.1-10.5-10.4-16l95.2-57.7c2.1,3.4,4.3,6.8,6.6,10.2L171.7,541.8z"/>
<path class="st3" d="M160.3,524.2c-3.3-5.4-6.4-11-9.3-16.6l98.6-51.6c1.9,3.6,3.9,7.1,5.9,10.5L160.3,524.2z"/>
<path class="st3" d="M150.1,505.8c-2.9-5.6-5.7-11.3-8.3-17.1l101.7-45.4c1.7,3.7,3.4,7.3,5.3,10.9L150.1,505.8z"/>
<path class="st3" d="M141,486.9c-2.6-5.8-5-11.7-7.2-17.6l104.3-39c1.4,3.8,3,7.5,4.6,11.2L141,486.9z"/>
<path class="st3" d="M133,467.4c-2.2-5.9-4.2-12-6.1-18L233.5,417c1.2,3.9,2.5,7.7,3.9,11.5L133,467.4z"/>
<path class="st3" d="M126.4,447.5c-1.8-6.1-3.5-12.2-5-18.4l108.3-25.7c0.9,3.9,2,7.8,3.2,11.7L126.4,447.5z"/>
<path class="st3" d="M120.9,427.2c-1.4-6.2-2.7-12.4-3.8-18.6l109.7-19c0.7,4,1.5,7.9,2.4,11.9L120.9,427.2z"/>
<path class="st3" d="M116.8,406.6c-1.1-6.3-1.9-12.5-2.7-18.8l110.7-12.1c0.5,4,1,8,1.7,12L116.8,406.6z"/>
<path class="st3" d="M113.9,385.7c-0.7-6.3-1.2-12.6-1.5-19l111.2-5.2c0.2,4,0.5,8.1,0.9,12.1L113.9,385.7z"/>
<path class="st3" d="M112.3,364.8c-0.3-6.3-0.4-12.7-0.3-19l111.3,1.7c0,4,0,8.1,0.2,12.1L112.3,364.8z"/>
<path class="st3" d="M112.1,343.7c0.1-6.3,0.4-12.7,0.9-19l111,8.6c-0.3,4-0.5,8.1-0.6,12.1L112.1,343.7z"/>
<path class="st3" d="M113.1,322.7c0.5-6.3,1.2-12.6,2.1-18.9l110.2,15.5c-0.5,4-1,8-1.3,12L113.1,322.7z"/>
<path class="st3" d="M115.4,301.9c0.9-6.3,2-12.5,3.2-18.7l109.1,22.4c-0.8,4-1.5,7.9-2.1,11.9L115.4,301.9z"/>
<path class="st3" d="M119.1,281.1c1.3-6.2,2.8-12.4,4.4-18.5L231,291.7c-1,3.9-2,7.8-2.8,11.8L119.1,281.1z"/>
<path class="st3" d="M124,260.7c1.7-6.1,3.5-12.2,5.5-18.2L235,278.2c-1.3,3.8-2.5,7.7-3.5,11.6L124,260.7z"/>
<path class="st3" d="M130.2,240.6c2.1-6,4.3-11.9,6.7-17.8l103,42.2c-1.5,3.7-2.9,7.5-4.2,11.3L130.2,240.6z"/>
<path class="st3" d="M137.6,220.9c2.4-5.9,5-11.7,7.8-17.4l100.2,48.5c-1.7,3.6-3.4,7.3-4.9,11L137.6,220.9z"/>
<path class="st3" d="M146.2,201.8c2.8-5.7,5.7-11.3,8.8-16.9l97,54.7c-2,3.5-3.8,7.1-5.6,10.7L146.2,201.8z"/>
<path class="st3" d="M156,183.2c3.1-5.5,6.4-10.9,9.9-16.3l93.4,60.6c-2.2,3.4-4.3,6.8-6.3,10.4L156,183.2z"/>
<path class="st3" d="M167,165.2c3.5-5.3,7.1-10.5,10.8-15.6l89.5,66.3c-2.4,3.3-4.7,6.6-6.9,9.9L167,165.2z"/>
<path class="st3" d="M179,148c3.8-5.1,7.7-10.1,11.8-14.9l85.2,71.7c-2.6,3.1-5.1,6.3-7.5,9.5L179,148z"/>
<path class="st3" d="M192.1,131.5c4.1-4.8,8.3-9.6,12.7-14.2l80.5,76.9c-2.8,2.9-5.5,5.9-8.1,9L192.1,131.5z"/>
<path class="st3" d="M206.2,115.9c4.4-4.6,8.9-9,13.6-13.3l75.6,81.7c-2.9,2.8-5.8,5.6-8.6,8.5L206.2,115.9z"/>
<path class="st4" d="M221.2,101.2c4.7-4.3,9.5-8.5,14.4-12.5l70.4,86.3c-3.1,2.6-6.2,5.2-9.1,7.9L221.2,101.2z"/>
<path class="st4" d="M237.1,87.5c4.9-4,10-7.9,15.1-11.6l64.9,90.5c-3.3,2.4-6.5,4.8-9.6,7.4L237.1,87.5z"/>
<path class="st4" d="M253.8,74.7c5.2-3.7,10.4-7.2,15.8-10.6l59.1,94.3c-3.4,2.2-6.8,4.4-10,6.7L253.8,74.7z"/>
<path class="st4" d="M271.3,63.1c5.4-3.4,10.9-6.6,16.4-9.6l53.1,97.8c-3.5,1.9-7,4-10.4,6.1L271.3,63.1z"/>
<path class="st4" d="M289.5,52.5c5.6-3,11.2-5.9,17-8.6l47,100.9c-3.6,1.7-7.3,3.5-10.8,5.4L289.5,52.5z"/>
<path class="st4" d="M308.3,43.1c5.8-2.7,11.6-5.2,17.5-7.5l40.6,103.7c-3.7,1.5-7.5,3.1-11.1,4.8L308.3,43.1z"/>
<path class="st4" d="M327.7,34.9c5.9-2.3,11.9-4.4,17.9-6.4l34.1,106c-3.8,1.3-7.6,2.6-11.4,4.1L327.7,34.9z"/>
<path class="st4" d="M347.5,27.9c6-1.9,12.1-3.7,18.3-5.3l27.4,107.9c-3.9,1-7.8,2.1-11.6,3.3L347.5,27.9z"/>
<path class="st4" d="M367.7,22.2c6.2-1.5,12.3-2.9,18.6-4.1L407,127.5c-4,0.8-7.9,1.6-11.8,2.6L367.7,22.2z"/>
<path class="st4" d="M388.3,17.7c6.2-1.2,12.5-2.1,18.8-2.9l13.8,110.5c-4,0.5-8,1.1-12,1.9L388.3,17.7z"/>
<path class="st4" d="M409,14.5c6.3-0.8,12.6-1.4,18.9-1.8l6.9,111.1c-4,0.3-8,0.6-12,1.1L409,14.5z"/>
<path class="st4" d="M430,12.6c6.3-0.4,12.7-0.6,19-0.6v111.3c-4,0-8.1,0.1-12.1,0.4L430,12.6z"/>
<g>
	<text transform="matrix(1 -2.314606e-03 2.314606e-03 1 566.9194 258.5819)" class="st5"><tspan x="0" y="0" class="st0 st6 st7">Modern</tspan><tspan x="-9.2" y="12" class="st0 st6 st7">orchestra</tspan></text>
</g>
<g>
	<text transform="matrix(1 -9.502423e-04 9.502423e-04 1 460.7145 502.1083)" class="st5"><tspan x="0" y="0" class="st0 st6 st7">Early Romantic</tspan><tspan x="13.1" y="12" class="st0 st6 st7">orchestra</tspan></text>
</g>
<text transform="matrix(1 2.433634e-03 -2.433634e-03 1 243.6796 374.795)" class="st5"><tspan x="0" y="0" class="st0 st6 st7">Late Romantic</tspan><tspan x="9.2" y="12" class="st0 st6 st7">orchestra</tspan></text>
<g>
	<text transform="matrix(1 3.782402e-03 -3.782402e-03 1 357.114 196.6241)" class="st5"><tspan x="0" y="0" class="st0 st6 st7">Classical</tspan><tspan x="-3.9" y="12" class="st0 st6 st7">orchestra</tspan></text>
</g>
<text transform="matrix(3.109991e-02 -0.9995 0.9995 3.109991e-02 461.7903 99.6904)" class="st0 st8 st7">Baritone horn</text>
<text transform="matrix(9.317927e-02 -0.9956 0.9956 9.317927e-02 477.9235 94.5565)" class="st0 st8 st7">Bass Drum</text>
<text transform="matrix(0.1549 -0.9879 0.9879 0.1549 494.138 94.3138)" class="st0 st8 st7">Bassoons</text>
<text transform="matrix(0.216 -0.9764 0.9764 0.216 511.2681 91.5882)" class="st0 st8 st7">Celesta</text>
<text transform="matrix(0.2763 -0.9611 0.9611 0.2763 527.984 93.2222)" class="st0 st8 st7">Cellos</text>
<text transform="matrix(0.3355 -0.942 0.942 0.3355 541.6523 104.5888)" class="st0 st8 st7">Clarinets</text>
<text transform="matrix(0.3934 -0.9194 0.9194 0.3934 556.9501 110.2513)" class="st0 st8 st7">Cymbals</text>
<text transform="matrix(0.4498 -0.8931 0.8931 0.4498 565.1492 130.2689)" class="st0 st8 st7">Double basses</text>
<text transform="matrix(0.5045 -0.8634 0.8634 0.5045 588.9625 120.0946)" class="st0 st8 st7">Flutes</text>
<text transform="matrix(0.5572 -0.8304 0.8304 0.5572 593.0795 143.9433)" class="st0 st8 st7">French Horns</text>
<text transform="matrix(0.6077 -0.7941 0.7941 0.6077 606.4531 152.14)" class="st0 st8 st7">Glockenspiel</text>
<text transform="matrix(0.6559 -0.7548 0.7548 0.6559 629.5696 149.455)" class="st0 st8 st7">Harps</text>
<text transform="matrix(0.7016 -0.7126 0.7126 0.7016 637.2075 165.5596)" class="st0 st8 st7">Marimba</text>
<text transform="matrix(0.7445 -0.6676 0.6676 0.7445 652.0366 174.2154)" class="st0 st8 st7">Oboes</text>
<text transform="matrix(0.7846 -0.62 0.62 0.7846 664.1008 185.9091)" class="st0 st8 st7">Piano</text>
<text transform="matrix(0.8216 -0.57 0.57 0.8216 663.8447 206.5056)" class="st0 st8 st7">Pipe organ</text>
<text transform="matrix(0.8555 -0.5178 0.5178 0.8555 670.209 221.375)" class="st0 st8 st7">Snare Drum</text>
<text transform="matrix(0.886 -0.4637 0.4637 0.886 684.7578 231.6622)" class="st0 st8 st7">Tam-tam</text>
<text transform="matrix(0.9131 -0.4077 0.4077 0.9131 684.5604 249.6559)" class="st0 st8 st7">Tambourine</text>
<text transform="matrix(0.9367 -0.3501 0.3501 0.9367 691.1271 264.1402)" class="st0 st8 st7">Tenor drum</text>
<text transform="matrix(0.9567 -0.2912 0.2912 0.9567 703.9676 276.8714)" class="st0 st8 st7">Timpani</text>
<text transform="matrix(0.9729 -0.2312 0.2312 0.9729 707.93 292.8239)" class="st0 st8 st7">Triangle</text>
<text transform="matrix(0.9854 -0.1702 0.1702 0.9854 703.3234 310.2937)" class="st0 st8 st7">Trombones</text>
<text transform="matrix(0.9941 -0.1087 0.1087 0.9941 709.7189 325.6367)" class="st0 st8 st7">Trumpets</text>
<text transform="matrix(0.9989 -4.664039e-02 4.664039e-02 0.9989 718.8742 341.4503)" class="st0 st8 st7">Tubas</text>
<text transform="matrix(0.9999 1.555181e-02 -1.555181e-02 0.9999 702.4959 357.9277)" class="st0 st8 st7">Tubular bells</text>
<text transform="matrix(0.997 7.768385e-02 -7.768385e-02 0.997 704.837 373.8689)" class="st0 st8 st7">Vibraphone</text>
<text transform="matrix(0.9902 0.1395 -0.1395 0.9902 715.5086 391.448)" class="st0 st8 st7">Violas</text>
<text transform="matrix(0.9796 0.2008 -0.2008 0.9796 706.7045 406.7032)" class="st0 st8 st7">Violins 1</text>
<text transform="matrix(0.9653 0.2613 -0.2613 0.9653 702.6828 422.5526)" class="st0 st8 st7">Violins 2</text>
<text transform="matrix(0.9471 0.3208 -0.3208 0.9471 690.3253 435.6292)" class="st0 st8 st7">Wood block</text>
<text transform="matrix(0.9254 0.3791 -0.3791 0.9254 687.02 451.4216)" class="st0 st8 st7">Xylophone</text>
<text transform="matrix(0.9 0.4359 -0.4359 0.9 674.4949 463.1706)" class="st0 st8 st7">Bass Clarinet</text>
<text transform="matrix(0.8712 0.491 -0.491 0.8712 671.8676 479.6378)" class="st0 st8 st7">Bass Drum</text>
<text transform="matrix(0.839 0.5442 -0.5442 0.839 665.4782 494.5425)" class="st0 st8 st7">Bassoons</text>
<text transform="matrix(0.8035 0.5953 -0.5953 0.8035 663.2201 512.9521)" class="st0 st8 st7">Cellos</text>
<text transform="matrix(0.7649 0.6441 -0.6441 0.7649 647.7875 521.7759)" class="st0 st8 st7">Clarinets</text>
<text transform="matrix(0.7234 0.6904 -0.6904 0.7234 625.6764 523.1949)" class="st0 st8 st7">Contrabassoon</text>
<text transform="matrix(0.6791 0.7341 -0.7341 0.6791 628.5314 548.8732)" class="st0 st8 st7">Cornet</text>
<text transform="matrix(0.6321 0.7749 -0.7749 0.6321 612.8307 555.9215)" class="st0 st8 st7">Cymbals</text>
<text transform="matrix(0.5827 0.8127 -0.8127 0.5827 591.2938 553.9048)" class="st0 st8 st7">Double basses</text>
<text transform="matrix(0.5311 0.8473 -0.8473 0.5311 580.564 565.8361)" class="st0 st8 st7">English Horn</text>
<text transform="matrix(0.4774 0.8787 -0.8787 0.4774 574.7155 587.9347)" class="st0 st8 st7">Flutes</text>
<text transform="matrix(0.4218 0.9067 -0.9067 0.4218 552.1818 579.1066)" class="st0 st8 st7">French Horns</text>
<text transform="matrix(0.3647 0.9311 -0.9311 0.3647 538.244 586.3027)" class="st0 st8 st7">Glockenspiel</text>
<text transform="matrix(0.3061 0.952 -0.952 0.3061 528.5708 607.469)" class="st0 st8 st7">Harps</text>
<text transform="matrix(0.2463 0.9692 -0.9692 0.2463 512.0704 610.5117)" class="st0 st8 st7">Oboes</text>
<text transform="matrix(0.1855 0.9826 -0.9826 0.1855 495.3413 611.6812)" class="st0 st8 st7">Piccolo</text>
<text transform="matrix(0.1241 0.9923 -0.9923 0.1241 477.6754 603.5163)" class="st0 st8 st7">Snare Drum</text>
<text transform="matrix(6.216959e-02 0.9981 -0.9981 6.216959e-02 461.867 604.8464)" class="st0 st8 st7">Tambourine</text>
<text transform="matrix(6.123234e-17 1 -1 6.123234e-17 446 614.2562)" class="st0 st8 st7">Timpani</text>
<text transform="matrix(6.216959e-02 -0.9981 0.9981 6.216959e-02 435.1857 652.169)" class="st0 st8 st7">Triangle</text>
<text transform="matrix(0.1241 -0.9923 0.9923 0.1241 415.4635 658.3797)" class="st0 st8 st7">Trombones</text>
<text transform="matrix(0.1855 -0.9826 0.9826 0.1855 397.1829 651.2692)" class="st0 st8 st7">Trumpets</text>
<text transform="matrix(0.2463 -0.9692 0.9692 0.2463 380.5629 639.5021)" class="st0 st8 st7">Tubas</text>
<text transform="matrix(0.3061 -0.952 0.952 0.3061 362.6116 634.8971)" class="st0 st8 st7">Violas</text>
<text transform="matrix(0.3647 -0.9311 0.9311 0.3647 342.9418 634.3445)" class="st0 st8 st7">Violins 1</text>
<text transform="matrix(0.4218 -0.9067 0.9067 0.4218 325.4712 627.1385)" class="st0 st8 st7">Violins 2</text>
<text transform="matrix(0.4774 -0.8787 0.8787 0.4774 302.999 628.954)" class="st0 st8 st7">Bass Clarinet</text>
<text transform="matrix(0.5311 -0.8473 0.8473 0.5311 288.8931 614.5654)" class="st0 st8 st7">Bass Drum</text>
<text transform="matrix(0.5827 -0.8127 0.8127 0.5827 274.2152 602.0037)" class="st0 st8 st7">Bassoons</text>
<text transform="matrix(0.6321 -0.7749 0.7749 0.6321 262.7497 585.8542)" class="st0 st8 st7">Celesta</text>
<text transform="matrix(0.6791 -0.7341 0.7341 0.6791 250.3389 571.7142)" class="st0 st8 st7">Cellos</text>
<text transform="matrix(0.7234 -0.6904 0.6904 0.7234 234.7301 560.9825)" class="st0 st8 st7">Chimes</text>
<text transform="matrix(0.7649 -0.6441 0.6441 0.7649 219.4786 549.3392)" class="st0 st8 st7">Clarinets</text>
<text transform="matrix(0.8035 -0.5953 0.5953 0.8035 195.2596 543.7149)" class="st0 st8 st7">Contrabassoon</text>
<text transform="matrix(0.839 -0.5442 0.5442 0.839 196.9877 518.8894)" class="st0 st8 st7">Cymbals</text>
<text transform="matrix(0.8712 -0.491 0.491 0.8712 174.3908 509.9269)" class="st0 st8 st7">Double basses</text>
<text transform="matrix(0.9 -0.4359 0.4359 0.9 168.743 490.6614)" class="st0 st8 st7">English Horn</text>
<text transform="matrix(0.9254 -0.3791 0.3791 0.9254 175.7058 466.6915)" class="st0 st8 st7">Flutes</text>
<text transform="matrix(0.9471 -0.3208 0.3208 0.9471 152.1407 455.1176)" class="st0 st8 st7">French Horns</text>
<text transform="matrix(0.9653 -0.2613 0.2613 0.9653 147.5158 436.0354)" class="st0 st8 st7">Glockenspiel</text>
<text transform="matrix(0.9796 -0.2008 0.2008 0.9796 159.3575 413.6597)" class="st0 st8 st7">Harps</text>
<text transform="matrix(0.9902 -0.1395 0.1395 0.9902 154.5889 395.661)" class="st0 st8 st7">Oboes</text>
<text transform="matrix(0.997 -7.768383e-02 7.768383e-02 0.997 154.2615 377.0559)" class="st0 st8 st7">Piano</text>
<text transform="matrix(0.9999 -1.555170e-02 1.555170e-02 0.9999 148.9821 358.6824)" class="st0 st8 st7">Piccolo</text>
<text transform="matrix(0.9989 4.664033e-02 -4.664033e-02 0.9989 138.477 339.459)" class="st0 st8 st7">Snare Drum</text>
<text transform="matrix(0.9941 0.1087 -0.1087 0.9941 147.5643 320.9678)" class="st0 st8 st7">Tam-tam</text>
<text transform="matrix(0.9854 0.1702 -0.1702 0.9854 142.2919 300.8979)" class="st0 st8 st7">Tambourine</text>
<text transform="matrix(0.9729 0.2312 -0.2312 0.9729 154.8564 283.9815)" class="st0 st8 st7">Timpani</text>
<text transform="matrix(0.9567 0.2912 -0.2912 0.9567 159.4408 265.7326)" class="st0 st8 st7">Triangle</text>
<text transform="matrix(0.9367 0.3501 -0.3501 0.9367 157.9581 245.1089)" class="st0 st8 st7">Trombones</text>
<text transform="matrix(0.9131 0.4077 -0.4077 0.9131 169.1012 228.9672)" class="st0 st8 st7">Trumpets</text>
<text transform="matrix(0.886 0.4637 -0.4637 0.886 184.3918 215.5179)" class="st0 st8 st7">Tubas</text>
<text transform="matrix(0.8555 0.5178 -0.5178 0.8555 193.022 199.1172)" class="st0 st8 st7">Violas</text>
<text transform="matrix(0.8216 0.57 -0.57 0.8216 198.1072 180.1082)" class="st0 st8 st7">Violins 1</text>
<text transform="matrix(0.7846 0.62 -0.62 0.7846 209.1567 164.7766)" class="st0 st8 st7">Violins 2</text>
<text transform="matrix(0.7445 0.6676 -0.6676 0.7445 213.2158 143.0588)" class="st0 st8 st7">Wagner Tuba</text>
<text transform="matrix(0.7016 0.7126 -0.7126 0.7016 230.4366 132.6963)" class="st0 st8 st7">Xylophone</text>
<text transform="matrix(0.6559 0.7548 -0.7548 0.6559 245.4596 120.7196)" class="st0 st8 st7">Bassoons</text>
<text transform="matrix(0.6077 0.7941 -0.7941 0.6077 265.5136 115.5081)" class="st0 st8 st7">Cellos</text>
<text transform="matrix(0.5572 0.8304 -0.8304 0.5572 276.8876 99.1849)" class="st0 st8 st7">Clarinets</text>
<text transform="matrix(0.5045 0.8634 -0.8634 0.5045 285.8062 76.9111)" class="st0 st8 st7">Double basses</text>
<text transform="matrix(0.4498 0.8931 -0.8931 0.4498 312.3525 85.5996)" class="st0 st8 st7">Flutes</text>
<text transform="matrix(0.3934 0.9194 -0.9194 0.3934 322.0616 61.2068)" class="st0 st8 st7">French Horns</text>
<text transform="matrix(0.3355 0.942 -0.942 0.3355 345.9489 69.7752)" class="st0 st8 st7">Oboes</text>
<text transform="matrix(0.2763 0.9611 -0.9611 0.2763 362.5988 60.4672)" class="st0 st8 st7">Timpani</text>
<text transform="matrix(0.216 0.9764 -0.9764 0.216 380.0281 52.2468)" class="st0 st8 st7">Trumpets</text>
<text transform="matrix(0.1549 0.9879 -0.9879 0.1549 399.8932 56.2439)" class="st0 st8 st7">Violas</text>
<text transform="matrix(9.317914e-02 0.9956 -0.9956 9.317914e-02 417.7092 47.8899)" class="st0 st8 st7">Violins 1</text>
<text transform="matrix(3.109964e-02 0.9995 -0.9995 3.109964e-02 436.5542 46.4668)" class="st0 st8 st7">Violins 2</text>
</svg>
