<svg xmlns="http://www.w3.org/2000/svg" width="900" height="700"><rect width="900" height="700" x="0" y="0" fill="#FFFFFF" id="backgorund"/><g transform="translate(450,350)" id="viz"><path fill="rgb(94, 79, 162)" display="" d="M0.9999942329972832,-224.66444116202518A224.66666666666666,224.66666666666666,0,0,1,205.5540059884939,90.67889353754441L103.89095443953259,45.289226424033856A113.33333333333333,113.33333333333333,0,0,0,0.9999942329973057,-113.32892153364213Z"><title>Modern orchestra</title></path><path fill="rgb(253, 190, 112)" display="" d="M204.7386434608356,92.50512950603313A224.66666666666666,224.66666666666666,0,0,1,-100.16733084898667,201.10101178686483L-50.08545486258493,101.66558737179662A113.33333333333333,113.33333333333333,0,0,0,103.07559191187423,47.11546239252258Z"><title>Early Romantic orchestra</title></path><path fill="rgb(190, 229, 160)" display="" d="M-101.95355058016686,200.20136022317246A224.66666666666666,224.66666666666666,0,0,1,-153.30057746180572,-164.23776685338854L-77.69416174792462,-82.51097911630774A113.33333333333333,113.33333333333333,0,0,0,-51.87167459376505,100.76593580810429Z"><title>Late Romantic orchestra</title></path><path fill="rgb(158, 1, 66)" display="" d="M-151.83246887092182,-165.59593143453634A224.66666666666666,224.66666666666666,0,0,1,-0.9999942329972608,-224.66444116202518L-0.9999942329973447,-113.32892153364213A113.33333333333333,113.33333333333333,0,0,0,-76.22605315704077,-83.86914369745548Z"><title>Classical orchestra</title></path><path fill="rgb(94, 79, 162)" display="" d="M0.9999942329973205,-337.9985207238842A338,338,0,0,1,20.01518564449409,-337.40686469545403L13.093587505190724,-226.2881696952399A226.66666666666666,226.66666666666666,0,0,0,0.9999942329973031,-226.6644607990228Z"><title>Baritone horn</title></path><path fill="rgb(94, 79, 162)" display="" d="M22.01130532706729,-337.282526137656A338,338,0,0,1,40.95293065702068,-335.50984705460024L27.136512696975522,-225.03641362327267A226.66666666666666,226.66666666666666,0,0,0,15.089707187763905,-226.16383113744186Z"><title>Bass Drum</title></path><path fill="rgb(94, 79, 162)" display="" d="M42.93745895690117,-335.2616509807294A338,338,0,0,1,61.732236736646044,-332.31480699404693L41.07445199286981,-222.91403538418842A226.66666666666666,226.66666666666666,0,0,0,29.12104099685599,-224.78821754940185Z"><title>Bassoons</title></path><path fill="rgb(94, 79, 162)" display="" d="M63.69749589937031,-331.9437136264968A338,338,0,0,1,82.27271278488533,-327.834105503097L54.85348221342195,-219.92924604708574A226.66666666666666,226.66666666666666,0,0,0,43.039711155594055,-222.54294201663825Z"><title>Celesta</title></path><path fill="rgb(94, 79, 162)" display="" d="M84.21109960453816,-327.3415505300153A338,338,0,0,1,102.4948916902486,-322.08507754536566L68.42029496752218,-216.09359318206322A226.66666666666666,226.66666666666666,0,0,0,56.79186903307477,-219.436691074004Z"><title>Cellos</title></path><path fill="rgb(94, 79, 162)" display="" d="M104.39890692478971,-321.47296656625593A338,338,0,0,1,122.32053777105668,-315.0899649931738L81.72240289221138,-211.42191618491412A226.66666666666666,226.66666666666666,0,0,0,70.3243102020633,-215.48148220295346Z"><title>Clarinets</title></path><path fill="rgb(94, 79, 162)" display="" d="M124.18281515543136,-314.36066614650116A338,338,0,0,1,141.6729494540956,-306.875830578065L94.70834271609212,-205.9322888663869A226.66666666666666,226.66666666666666,0,0,0,83.58468027658606,-210.6926173382415Z"><title>Cymbals</title></path><path fill="rgb(94, 79, 162)" display="" d="M143.48628419888306,-306.03216537938846A338,338,0,0,1,160.47725601810214,-297.47445319035467L107.32787436072775,-199.64594952812243A226.66666666666666,226.66666666666666,0,0,0,96.52167746087957,-205.08862366771032Z"><title>Double basses</title></path><path fill="rgb(94, 79, 162)" display="" d="M162.23463268344628,-296.51968561643133A338,338,0,0,1,178.66070725404015,-286.9222049327765L119.5321753097462,-192.58721879579102A226.66666666666666,226.66666666666666,0,0,0,109.08525102607186,-198.69118195419912Z"><title>Flutes</title></path><path fill="rgb(94, 79, 162)" display="" d="M180.3553268910233,-285.8600287938699A338,338,0,0,1,196.15295492152552,-275.2599104038835L131.27402949367084,-184.78340552731623A226.66666666666666,226.66666666666666,0,0,0,121.22679494672934,-191.52504265688447Z"><title>French Horns</title></path><path fill="rgb(94, 79, 162)" display="" d="M197.77826137598126,-274.09443505312913A338,338,0,0,1,212.88632491250263,-262.5326887556069L142.50800995972116,-176.264701160209A226.66666666666666,226.66666666666666,0,0,0,132.89933594812655,-183.6179301765619Z"><title>Glockenspiel</title></path><path fill="rgb(94, 79, 162)" display="" d="M214.43603018950236,-261.26842319072324A338,338,0,0,1,228.79607906922112,-248.78977913602225L153.19065461986776,-167.0640629067609A226.66666666666666,226.66666666666666,0,0,0,144.05771523672087,-175.00043559532534Z"><title>Harps</title></path><path fill="rgb(94, 79, 162)" display="" d="M230.264187660105,-247.43161455487441A338,338,0,0,1,243.82066564359187,-234.08435019265124L163.2806343972079,-157.21708624899236A226.66666666666666,226.66666666666666,0,0,0,154.65876321075163,-165.70589832561313Z"><title>Marimba</title></path><path fill="rgb(94, 79, 162)" display="" d="M245.20149772142713,-232.637541070157A338,338,0,0,1,257.9019574289428,-218.47329437329353L172.73891312013507,-146.76186722664784A226.66666666666666,226.66666666666666,0,0,0,164.66146647504314,-155.7702771264981Z"><title>Oboes</title></path><path fill="rgb(94, 79, 162)" display="" d="M259.19017082267067,-216.9434381328802A338,338,0,0,1,270.9854766428894,-202.01700782019824L181.52889854570347,-135.73885505101873A226.66666666666666,226.66666666666666,0,0,0,174.0271265138629,-145.23201098623449Z"><title>Piano</title></path><path fill="rgb(94, 79, 162)" display="" d="M272.1760875051471,-200.41002317845914A338,338,0,0,1,283.0206056912914,-184.77915670912282L189.6165839279073,-124.19069561480302A226.66666666666666,226.66666666666666,0,0,0,182.7195094079611,-134.1318704092796Z"><title>Pipe organ</title></path><path fill="rgb(94, 79, 162)" display="" d="M284.1090077799495,-183.10126077745238A338,338,0,0,1,293.96078299789116,-166.82643093726708L196.97067958317479,-112.16206650343095A226.66666666666666,226.66666666666666,0,0,0,190.70498601656536,-122.51279968313261Z"><title>Snare Drum</title></path><path fill="rgb(94, 79, 162)" display="" d="M294.94276549670946,-165.08411516906486A338,338,0,0,1,303.76368314200704,-148.22828611301674L203.56273394407512,-99.69950414616642A226.66666666666666,226.66666666666666,0,0,0,197.95266208199305,-110.41975073522875Z"><title>Tam-tam</title></path><path fill="rgb(94, 79, 162)" display="" d="M304.63544695146453,-146.42829118951516A338,338,0,0,1,312.39138060736326,-129.05667484568758L209.3672436329059,-86.85122377570273A226.66666666666666,226.66666666666666,0,0,0,204.43449775353264,-97.89950922266482Z"><title>Tambourine</title></path><path fill="rgb(94, 79, 162)" display="" d="M313.1495530426363,-127.20596459756567A338,338,0,0,1,319.8104965085448,-109.38576837485785L214.36175212930678,-73.66693289279395A226.66666666666666,226.66666666666666,0,0,0,210.12541606817896,-85.00051352758082Z"><title>Tenor drum</title></path><path fill="rgb(94, 79, 162)" display="" d="M320.4521443477694,-107.49150284053334A338,338,0,0,1,325.9923277274209,-89.29166961625151L218.52693665017435,-60.19763895759089A226.66666666666666,226.66666666666666,0,0,0,215.00339996853134,-71.77266735846943Z"><title>Timpani</title></path><path fill="rgb(94, 79, 162)" display="" d="M326.51496855975813,-87.36117734108305A338,338,0,0,1,330.9129579599326,-68.85211873434154L221.84668290575598,-46.495452051687A226.66666666666666,226.66666666666666,0,0,0,219.04957748251158,-58.26714668242241Z"><title>Triangle</title></path><path fill="rgb(94, 79, 162)" display="" d="M331.3145697895342,-66.89286841791042A338,338,0,0,1,334.55335024362745,-48.14619238075592L224.30814744270668,-32.613383274335895A226.66666666666666,226.66666666666666,0,0,0,222.24829473535755,-44.536201735255894Z"><title>Trombones</title></path><path fill="rgb(94, 79, 162)" display="" d="M334.8323793123446,-46.16576398191839A338,338,0,0,1,336.8994206079684,-27.253997762074608L225.90180733291473,-18.60513965280666A226.66666666666666,226.66666666666666,0,0,0,224.58717651142385,-30.632954875498367Z"><title>Trumpets</title></path><path fill="rgb(94, 79, 162)" display="" d="M337.0547874065405,-25.26005317357351A338,338,0,0,1,337.9420925624805,-6.256362720609348L226.6214970158608,-4.524916360328895A226.66666666666666,226.66666666666666,0,0,0,226.05717413148685,-16.611195064305566Z"><title>Tubas</title></path><path fill="rgb(94, 79, 162)" display="" d="M337.9731960069466,-4.2566161266995834A338,338,0,0,1,337.6773322119287,14.765476972815952L226.4644321519736,9.572812954504203A226.66666666666666,226.66666666666666,0,0,0,226.65260046032682,-2.5251697664191313Z"><title>Tubular bells</title></path><path fill="rgb(94, 79, 162)" display="" d="M337.58405196910434,16.763288941047694A338,338,0,0,1,336.10616386267486,35.73019190428113L225.43122039469898,23.633506915699787A226.66666666666666,226.66666666666666,0,0,0,226.37115190914926,11.570624922735947Z"><title>Vibraphone</title></path><path fill="rgb(94, 79, 162)" display="" d="M335.8888608156984,37.71834010043908A338,338,0,0,1,333.23466605983594,56.55667366447257L223.5258590396067,37.60276742985347A226.66666666666666,226.66666666666666,0,0,0,225.21391734772251,25.62165511185773Z"><title>Violas</title></path><path fill="rgb(94, 79, 162)" display="" d="M332.8941809119812,58.52746632941775A338,338,0,0,1,329.0739480705732,77.16434864136217L220.75571955963042,51.42655014180498A226.66666666666666,226.66666666666666,0,0,0,223.185373891752,39.57356009479865Z"><title>Violins 1</title></path><path fill="rgb(94, 79, 162)" display="" d="M328.6115980927322,79.11016116113426A338,338,0,0,1,323.6401069044962,97.47348974385942L217.13151908627094,65.05137352174916A226.66666666666666,226.66666666666666,0,0,0,220.29336958178942,53.37236266157706Z"><title>Violins 2</title></path><path fill="rgb(94, 79, 162)" display="" d="M323.05768083891377,99.38679414782693A338,338,0,0,1,316.95416503745946,117.40552485043848L212.6672789470965,78.42452577488513A226.66666666666666,226.66666666666666,0,0,0,216.5490930206885,66.96467792571667Z"><title>Wood block</title></path><path fill="rgb(94, 79, 162)" display="" d="M316.253916177437,119.27891893555474A338,338,0,0,1,309.0419890796873,136.88334078941247L207.3802704199501,91.49426877311022A226.66666666666666,226.66666666666666,0,0,0,211.96703008707408,80.2979198600014Z"><title>Xylophone</title></path><path fill="rgb(253, 190, 112)" display="" d="M308.22662655202913,138.70957675790075A338,338,0,0,1,299.9341897028845,155.83158167481352L201.29094791373123,104.21003821978623A226.66666666666666,226.66666666666666,0,0,0,206.5649078922919,93.32050474159868Z"><title>Bass Clarinet</title></path><path fill="rgb(253, 190, 112)" display="" d="M299.0068679868116,157.60359417449033A338,338,0,0,1,289.66600321349296,174.1769404436784L194.4228698342606,116.52263927318131A226.66666666666666,226.66666666666666,0,0,0,200.36362619765828,105.98205071946303Z"><title>Bass Drum</title></path><path fill="rgb(253, 190, 112)" display="" d="M288.6303099365766,175.88787390242595A338,338,0,0,1,278.2771552302684,191.8484424668313L186.80260744138553,128.384436871754A226.66666666666666,226.66666666666666,0,0,0,193.38717655734433,118.23357273192885Z"><title>Bassoons</title></path><path fill="rgb(253, 190, 112)" display="" d="M277.137097288596,193.4916776154759A338,338,0,0,1,265.8117069935787,208.77772013593759L178.45964204993714,139.74954002495352A226.66666666666666,226.66666666666666,0,0,0,185.66254949971312,130.0276720203986Z"><title>Cellos</title></path><path fill="rgb(253, 190, 112)" display="" d="M264.5716950498506,210.3468996169158A338,338,0,0,1,252.31788490102377,224.8992773644987L169.4262509722505,150.57397935654672A226.66666666666666,226.66666666666666,0,0,0,177.21963010620908,141.31871950593174Z"><title>Clarinets</title></path><path fill="rgb(253, 190, 112)" display="" d="M250.9827163205567,226.38833032723875A338,338,0,0,1,237.847893928873,240.1507429794869L159.73738264351368,160.81587721359315A226.66666666666666,226.66666666666666,0,0,0,168.0910823917834,152.06303231928678Z"><title>Contrabassoon</title></path><path fill="rgb(253, 190, 112)" display="" d="M236.4227342195253,241.55390856735002A338,338,0,0,1,222.45771566115312,254.47311202329715L149.43052141306137,170.43560968294852A226.66666666666666,226.66666666666666,0,0,0,158.31222293416596,162.21904280145628Z"><title>Cornet</title></path><path fill="rgb(253, 190, 112)" display="" d="M220.94807848897847,255.784961661213A338,338,0,0,1,206.20689170777524,267.81097403246537L138.54554252470925,179.39595988848734A226.66666666666666,226.66666666666666,0,0,0,147.92088424088675,171.74745932086438Z"><title>Cymbals</title></path><path fill="rgb(253, 190, 112)" display="" d="M204.61861756571986,269.0264324290342A338,338,0,0,1,189.15829334961316,280.11272740998703L127.12455784718206,187.66226197596637A226.66666666666666,226.66666666666666,0,0,0,136.95726838265384,180.61141828505612Z"><title>Double basses</title></path><path fill="rgb(253, 190, 112)" display="" d="M187.49752696178302,281.2270921927961A338,338,0,0,1,171.37787830173124,291.3307790618715L115.2117529514746,195.20253522848049A226.66666666666666,226.66666666666666,0,0,0,125.46379145935198,188.77662675877545Z"><title>English Horn</title></path><path fill="rgb(253, 190, 112)" display="" d="M169.65104485064856,292.3397389700607A338,338,0,0,1,152.9344355357986,301.42172852557707L102.85321616546125,201.98760779364332A226.66666666666666,226.66666666666666,0,0,0,113.4849195003919,196.21149513666967Z"><title>Flutes</title></path><path fill="rgb(253, 190, 112)" display="" d="M151.14821580461845,302.3213800892694A338,338,0,0,1,133.8993191489208,310.3465358779689L90.09676026710886,207.99122954381727A226.66666666666666,226.66666666666666,0,0,0,101.0669964342811,202.88725935733567Z"><title>French Horns</title></path><path fill="rgb(253, 190, 112)" display="" d="M132.06062367477924,311.1333985200373A338,338,0,0,1,114.34617230850012,318.070672773198L76.99173750612736,213.19017363275765A226.66666666666666,226.66666666666666,0,0,0,88.25806479296733,208.7780921858856Z"><title>Glockenspiel</title></path><path fill="rgb(253, 190, 112)" display="" d="M112.46211464698841,318.7417022749418A338,338,0,0,1,94.35064234112727,324.564256026163L63.58884866970307,217.56432635576857A226.66666666666666,226.66666666666666,0,0,0,75.1076798446157,213.8612031345014Z"><title>Harps</title></path><path fill="rgb(253, 190, 112)" display="" d="M92.42851154532723,325.116856304799A338,338,0,0,1,73.99008806777064,329.80216322474837L49.93994693100256,221.09676496571907A226.66666666666666,226.66666666666666,0,0,0,61.66671787390306,218.11692663440454Z"><title>Oboes</title></path><path fill="rgb(253, 190, 112)" display="" d="M72.03732048832428,330.23419637715057A338,338,0,0,1,53.34328051752622,333.7641299235562L36.097837239319084,223.77382314386418A226.66666666666666,226.66666666666666,0,0,0,47.987179351556215,221.5287981181213Z"><title>Piccolo</title></path><path fill="rgb(253, 190, 112)" display="" d="M51.36743103283974,334.07392449738796A338,338,0,0,1,32.490098177808626,336.43482804310906L22.11607202798205,225.58514387217718A226.66666666666666,226.66666666666666,0,0,0,34.12198775463263,224.08361771769592Z"><title>Snare Drum</title></path><path fill="rgb(253, 190, 112)" display="" d="M30.498810965695547,336.621185503347A338,338,0,0,1,11.511217960001131,337.80392517121135L8.04874403039589,226.5237195026405A226.66666666666666,226.66666666666666,0,0,0,20.12478481586899,225.77150133241517Z"><title>Tambourine</title></path><path fill="rgb(253, 190, 112)" display="" d="M9.512196923843351,337.86612453704504A338,338,0,0,1,-9.51219692384166,337.8661245370451L-6.049722994236998,226.58591886847418A226.66666666666666,226.66666666666666,0,0,0,6.049722994238133,226.58591886847418Z"><title>Timpani</title></path><path fill="rgb(253, 190, 112)" display="" d="M-11.511217959999438,337.8039251712114A338,338,0,0,1,-30.498810965693863,336.6211855033472L-20.12478481586786,225.77150133241526A226.66666666666666,226.66666666666666,0,0,0,-8.048744030394754,226.52371950264052Z"><title>Triangle</title></path><path fill="rgb(253, 190, 112)" display="" d="M-32.49009817780694,336.43482804310923A338,338,0,0,1,-51.367431032838056,334.0739244973882L-34.1219877546315,224.08361771769606A226.66666666666666,226.66666666666666,0,0,0,-22.11607202798092,225.5851438721773Z"><title>Trombones</title></path><path fill="rgb(253, 190, 112)" display="" d="M-53.34328051752455,333.7641299235565A338,338,0,0,1,-72.03732048832262,330.2341963771509L-47.987179351555106,221.52879811812156A226.66666666666666,226.66666666666666,0,0,0,-36.09783723931796,223.77382314386435Z"><title>Trumpets</title></path><path fill="rgb(253, 190, 112)" display="" d="M-73.990088067769,329.8021632247487A338,338,0,0,1,-92.4285115453256,325.11685630479946L-61.666717873901966,218.11692663440488A226.66666666666666,226.66666666666666,0,0,0,-49.93994693100145,221.09676496571933Z"><title>Tubas</title></path><path fill="rgb(253, 190, 112)" display="" d="M-94.35064234112563,324.5642560261635A338,338,0,0,1,-112.4621146469868,318.7417022749424L-75.10767984461464,213.86120313450178A226.66666666666666,226.66666666666666,0,0,0,-63.588848669701974,217.56432635576888Z"><title>Violas</title></path><path fill="rgb(253, 190, 112)" display="" d="M-114.34617230849852,318.07067277319857A338,338,0,0,1,-132.0606236747777,311.133398520038L-88.25806479296628,208.77809218588607A226.66666666666666,226.66666666666666,0,0,0,-76.9917375061263,213.19017363275802Z"><title>Violins 1</title></path><path fill="rgb(253, 190, 112)" display="" d="M-133.89931914891926,310.3465358779696A338,338,0,0,1,-151.148215804617,302.3213800892701L-101.06699643428009,202.88725935733615A226.66666666666666,226.66666666666666,0,0,0,-90.09676026710781,207.99122954381772Z"><title>Violins 2</title></path><path fill="rgb(190, 229, 160)" display="" d="M-152.93443553579797,301.42172852557735A338,338,0,0,1,-169.65104485064805,292.33973897006103L-113.48491950039153,196.2114951366699A226.66666666666666,226.66666666666666,0,0,0,-102.85321616546085,201.98760779364352Z"><title>Bass Clarinet</title></path><path fill="rgb(190, 229, 160)" display="" d="M-171.37787830173065,291.33077906187185A338,338,0,0,1,-187.49752696178257,281.2270921927964L-125.4637914593516,188.77662675877568A226.66666666666666,226.66666666666666,0,0,0,-115.21175295147424,195.20253522848068Z"><title>Bass Drum</title></path><path fill="rgb(190, 229, 160)" display="" d="M-189.15829334961256,280.11272740998743A338,338,0,0,1,-204.6186175657194,269.0264324290345L-136.9572683826535,180.61141828505637A226.66666666666666,226.66666666666666,0,0,0,-127.1245578471817,187.6622619759666Z"><title>Bassoons</title></path><path fill="rgb(190, 229, 160)" display="" d="M-206.2068917077747,267.8109740324658A338,338,0,0,1,-220.94807848897804,255.78496166121337L-147.9208842408864,171.74745932086464A226.66666666666666,226.66666666666666,0,0,0,-138.5455425247089,179.3959598884876Z"><title>Celesta</title></path><path fill="rgb(190, 229, 160)" display="" d="M-222.4577156611526,254.47311202329763A338,338,0,0,1,-236.42273421952487,241.55390856735045L-158.31222293416567,162.21904280145657A226.66666666666666,226.66666666666666,0,0,0,-149.43052141306106,170.4356096829488Z"><title>Cellos</title></path><path fill="rgb(190, 229, 160)" display="" d="M-237.8478939288725,240.15074297948738A338,338,0,0,1,-250.98271632055634,226.38833032723915L-168.09108239178312,152.0630323192871A226.66666666666666,226.66666666666666,0,0,0,-159.73738264351337,160.81587721359344Z"><title>Chimes</title></path><path fill="rgb(190, 229, 160)" display="" d="M-252.31788490102332,224.8992773644992A338,338,0,0,1,-264.57169504985035,210.34689961691615L-177.21963010620888,141.318719505932A226.66666666666666,226.66666666666666,0,0,0,-169.42625097225022,150.57397935654706Z"><title>Clarinets</title></path><path fill="rgb(190, 229, 160)" display="" d="M-265.8117069935783,208.77772013593804A338,338,0,0,1,-277.13709728859584,193.49167761547614L-185.66254949971298,130.0276720203988A226.66666666666666,226.66666666666666,0,0,0,-178.45964204993695,139.74954002495377Z"><title>Contrabassoon</title></path><path fill="rgb(190, 229, 160)" display="" d="M-278.2771552302682,191.84844246683164A338,338,0,0,1,-288.6303099365766,175.88787390242607L-193.38717655734425,118.23357273192894A226.66666666666666,226.66666666666666,0,0,0,-186.8026074413854,128.3844368717542Z"><title>Cymbals</title></path><path fill="rgb(190, 229, 160)" display="" d="M-289.66600321349284,174.17694044367863A338,338,0,0,1,-299.0068679868116,157.60359417449033L-200.36362619765828,105.98205071946306A226.66666666666666,226.66666666666666,0,0,0,-194.42286983426052,116.52263927318141Z"><title>Double basses</title></path><path fill="rgb(190, 229, 160)" display="" d="M-299.9341897028845,155.8315816748136A338,338,0,0,1,-308.2266265520292,138.7095767579006L-206.56490789229193,93.32050474159861A226.66666666666666,226.66666666666666,0,0,0,-201.29094791373123,104.21003821978626Z"><title>English Horn</title></path><path fill="rgb(190, 229, 160)" display="" d="M-309.04198907968754,136.88334078941202A338,338,0,0,1,-316.25391617743725,119.27891893555412L-211.96703008707422,80.29791986000102A226.66666666666666,226.66666666666666,0,0,0,-207.38027041995028,91.4942687731099Z"><title>Flutes</title></path><path fill="rgb(190, 229, 160)" display="" d="M-316.95416503745963,117.40552485043796A338,338,0,0,1,-323.057680838914,99.3867941478262L-216.54909302068864,66.96467792571622A226.66666666666666,226.66666666666666,0,0,0,-212.66727894709663,78.42452577488474Z"><title>French Horns</title></path><path fill="rgb(190, 229, 160)" display="" d="M-323.6401069044964,97.47348974385879A338,338,0,0,1,-328.61159809273244,79.11016116113342L-220.29336958178953,53.372362661576545A226.66666666666666,226.66666666666666,0,0,0,-217.13151908627108,65.0513735217487Z"><title>Glockenspiel</title></path><path fill="rgb(190, 229, 160)" display="" d="M-329.07394807057335,77.16434864136147A338,338,0,0,1,-332.8941809119814,58.52746632941684L-223.1853738917521,39.57356009479808A226.66666666666666,226.66666666666666,0,0,0,-220.75571955963053,51.42655014180446Z"><title>Harps</title></path><path fill="rgb(190, 229, 160)" display="" d="M-333.23466605983606,56.55667366447179A338,338,0,0,1,-335.88886081569854,37.718340100438084L-225.21391734772257,25.621655111857113A226.66666666666666,226.66666666666666,0,0,0,-223.52585903960681,37.6027674298529Z"><title>Oboes</title></path><path fill="rgb(190, 229, 160)" display="" d="M-336.106163862675,35.73019190428027A338,338,0,0,1,-337.5840519691044,16.76328894104662L-226.37115190914932,11.57062492273527A226.66666666666666,226.66666666666666,0,0,0,-225.43122039469907,23.633506915699165Z"><title>Piano</title></path><path fill="rgb(190, 229, 160)" display="" d="M-337.67733221192873,14.76547697281501A338,338,0,0,1,-337.9731960069465,-4.256616126700733L-226.65260046032682,-2.525169766419859A226.66666666666666,226.66666666666666,0,0,0,-226.46443215197363,9.57281295450353Z"><title>Piccolo</title></path><path fill="rgb(190, 229, 160)" display="" d="M-337.9420925624805,-6.256362720610366A338,338,0,0,1,-337.0547874065404,-25.26005317357473L-226.0571741314868,-16.61119506430634A226.66666666666666,226.66666666666666,0,0,0,-226.62149701586077,-4.5249163603296205Z"><title>Snare Drum</title></path><path fill="rgb(190, 229, 160)" display="" d="M-336.89942060796835,-27.2539977620757A338,338,0,0,1,-334.8323793123444,-46.16576398191969L-224.58717651142373,-30.632954875499184A226.66666666666666,226.66666666666666,0,0,0,-225.9018073329147,-18.605139652807438Z"><title>Tam-tam</title></path><path fill="rgb(190, 229, 160)" display="" d="M-334.5533502436272,-48.146192380757086A338,338,0,0,1,-331.3145697895339,-66.89286841791177L-222.2482947353574,-44.536201735256746A226.66666666666666,226.66666666666666,0,0,0,-224.30814744270657,-32.61338327433671Z"><title>Tambourine</title></path><path fill="rgb(190, 229, 160)" display="" d="M-330.9129579599324,-68.85211873434275A338,338,0,0,1,-326.51496855975773,-87.36117734108444L-219.04957748251135,-58.267146682423316A226.66666666666666,226.66666666666666,0,0,0,-221.8466829057558,-46.49545205168786Z"><title>Timpani</title></path><path fill="rgb(190, 229, 160)" display="" d="M-325.9923277274205,-89.2916696162528A338,338,0,0,1,-320.45214434776886,-107.49150284053479L-215.00339996853106,-71.77266735847034A226.66666666666666,226.66666666666666,0,0,0,-218.5269366501741,-60.19763895759179Z"><title>Triangle</title></path><path fill="rgb(190, 229, 160)" display="" d="M-319.81049650854436,-109.38576837485918A338,338,0,0,1,-313.14955304263566,-127.20596459756716L-210.12541606817857,-85.00051352758179A226.66666666666666,226.66666666666666,0,0,0,-214.3617521293065,-73.66693289279488Z"><title>Trombones</title></path><path fill="rgb(190, 229, 160)" display="" d="M-312.3913806073627,-129.05667484568895A338,338,0,0,1,-304.63544695146385,-146.42829118951667L-204.43449775353218,-97.8995092226658A226.66666666666666,226.66666666666666,0,0,0,-209.3672436329055,-86.85122377570369Z"><title>Trumpets</title></path><path fill="rgb(190, 229, 160)" display="" d="M-303.76368314200636,-148.22828611301813A338,338,0,0,1,-294.94276549670855,-165.0841151690664L-197.9526620819925,-110.41975073522973A226.66666666666666,226.66666666666666,0,0,0,-203.56273394407467,-99.69950414616738Z"><title>Tubas</title></path><path fill="rgb(190, 229, 160)" display="" d="M-293.96078299789036,-166.82643093726847A338,338,0,0,1,-284.10900777994846,-183.10126077745397L-190.7049860165647,-122.51279968313362A226.66666666666666,226.66666666666666,0,0,0,-196.97067958317425,-112.16206650343193Z"><title>Violas</title></path><path fill="rgb(190, 229, 160)" display="" d="M-283.0206056912904,-184.77915670912424A338,338,0,0,1,-272.1760875051459,-200.4100231784607L-182.71950940796037,-134.13187040928062A226.66666666666666,226.66666666666666,0,0,0,-189.61658392790665,-124.19069561480403Z"><title>Violins 1</title></path><path fill="rgb(190, 229, 160)" display="" d="M-270.9854766428883,-202.01700782019972A338,338,0,0,1,-259.1901708226693,-216.9434381328818L-174.02712651386202,-145.23201098623554A226.66666666666666,226.66666666666666,0,0,0,-181.5288985457027,-135.73885505101975Z"><title>Violins 2</title></path><path fill="rgb(190, 229, 160)" display="" d="M-257.90195742894156,-218.47329437329503A338,338,0,0,1,-245.20149772142557,-232.6375410701586L-164.66146647504215,-155.77027712649914A226.66666666666666,226.66666666666666,0,0,0,-172.73891312013419,-146.76186722664886Z"><title>Wagner Tuba</title></path><path fill="rgb(190, 229, 160)" display="" d="M-243.82066564359042,-234.08435019265275A338,338,0,0,1,-230.2641876601033,-247.431614554876L-154.65876321075052,-165.70589832561413A226.66666666666666,226.66666666666666,0,0,0,-163.2806343972069,-157.21708624899338Z"><title>Xylophone</title></path><path fill="rgb(158, 1, 66)" display="" d="M-228.7960790692213,-248.7897791360221A338,338,0,0,1,-214.43603018950245,-261.2684231907231L-144.05771523672087,-175.00043559532534A226.66666666666666,226.66666666666666,0,0,0,-153.19065461986781,-167.06406290676082Z"><title>Bassoons</title></path><path fill="rgb(158, 1, 66)" display="" d="M-212.8863249125026,-262.5326887556069A338,338,0,0,1,-197.77826137598126,-274.09443505312913L-132.89933594812652,-183.61793017656194A226.66666666666666,226.66666666666666,0,0,0,-142.5080099597212,-176.264701160209Z"><title>Cellos</title></path><path fill="rgb(158, 1, 66)" display="" d="M-196.1529549215254,-275.2599104038836A338,338,0,0,1,-180.3553268910232,-285.86002879386996L-121.22679494672924,-191.52504265688452A226.66666666666666,226.66666666666666,0,0,0,-131.2740294936708,-184.78340552731626Z"><title>Clarinets</title></path><path fill="rgb(158, 1, 66)" display="" d="M-178.66070725403992,-286.9222049327766A338,338,0,0,1,-162.2346326834461,-296.5196856164314L-109.0852510260717,-198.6911819541992A226.66666666666666,226.66666666666666,0,0,0,-119.5321753097461,-192.58721879579107Z"><title>Double basses</title></path><path fill="rgb(158, 1, 66)" display="" d="M-160.47725601810188,-297.4744531903548A338,338,0,0,1,-143.48628419888274,-306.0321653793886L-96.52167746087933,-205.0886236677104A226.66666666666666,226.66666666666666,0,0,0,-107.3278743607276,-199.64594952812251Z"><title>Flutes</title></path><path fill="rgb(158, 1, 66)" display="" d="M-141.67294945409515,-306.87583057806523A338,338,0,0,1,-124.18281515543096,-314.36066614650133L-83.58468027658574,-210.6926173382416A226.66666666666666,226.66666666666666,0,0,0,-94.70834271609189,-205.93228886638698Z"><title>French Horns</title></path><path fill="rgb(158, 1, 66)" display="" d="M-122.32053777105615,-315.089964993174A338,338,0,0,1,-104.39890692478919,-321.47296656625605L-70.32431020206289,-215.4814822029536A226.66666666666666,226.66666666666666,0,0,0,-81.72240289221108,-211.42191618491424Z"><title>Oboes</title></path><path fill="rgb(158, 1, 66)" display="" d="M-102.49489169024791,-322.0850775453659A338,338,0,0,1,-84.21109960453757,-327.3415505300154L-56.791869033074306,-219.4366910740041A226.66666666666666,226.66666666666666,0,0,0,-68.42029496752178,-216.09359318206333Z"><title>Timpani</title></path><path fill="rgb(158, 1, 66)" display="" d="M-82.27271278488458,-327.83410550309725A338,338,0,0,1,-63.69749589936954,-331.9437136264969L-43.039711155593494,-222.54294201663834A226.66666666666666,226.66666666666666,0,0,0,-54.853482213421486,-219.92924604708585Z"><title>Trumpets</title></path><path fill="rgb(158, 1, 66)" display="" d="M-61.73223673664512,-332.31480699404716A338,338,0,0,1,-42.937458956900315,-335.26165098072954L-29.121040996855367,-224.7882175494019A226.66666666666666,226.66666666666666,0,0,0,-41.07445199286924,-222.91403538418854Z"><title>Violas</title></path><path fill="rgb(158, 1, 66)" display="" d="M-40.952930657019685,-335.50984705460036A338,338,0,0,1,-22.01130532706628,-337.2825261376561L-15.089707187763178,-226.16383113744192A226.66666666666666,226.66666666666666,0,0,0,-27.136512696974904,-225.03641362327275Z"><title>Violins 1</title></path><path fill="rgb(158, 1, 66)" display="" d="M-20.01518564449293,-337.40686469545415A338,338,0,0,1,-0.9999942329962361,-337.9985207238842L-0.9999942329965255,-226.6644607990228A226.66666666666666,226.66666666666666,0,0,0,-13.093587505189998,-226.28816969523993Z"><title>Violins 2</title></path></g><g id="labels" transform="translate(450,350)" text-anchor="middle"><text transform="rotate(90) translate(56.666666666666664,0) rotate(180)"><tspan x="0" y="4" style="font-family: Arial, sans-serif; font-size: 10px; fill: black; font-weight: normal;"/></text><text transform="rotate(-32.97029702970297) translate(170,0) rotate(0)"><tspan x="0" y="4" style="font-family: Arial, sans-serif; font-size: 10px; fill: black; font-weight: normal;">Modern orchestra</tspan></text><text transform="rotate(70.39603960396039) translate(170,0) rotate(0)"><tspan x="0" y="4" style="font-family: Arial, sans-serif; font-size: 10px; fill: black; font-weight: normal;">Early Romantic orchestra</tspan></text><text transform="rotate(171.980198019802) translate(170,0) rotate(180)"><tspan x="0" y="4" style="font-family: Arial, sans-serif; font-size: 10px; fill: black; font-weight: normal;">Late Romantic orchestra</tspan></text><text transform="rotate(248.61386138613864) translate(170,0) rotate(180)"><tspan x="0" y="4" style="font-family: Arial, sans-serif; font-size: 10px; fill: black; font-weight: normal;">Classical orchestra</tspan></text><text transform="rotate(-88.21782178217822) translate(283.3333333333333,0) rotate(0)"><tspan x="0" y="4" style="font-family: Arial, sans-serif; font-size: 10px; fill: black; font-weight: bold;">Baritone horn</tspan></text><text transform="rotate(-84.65346534653466) translate(283.3333333333333,0) rotate(0)"><tspan x="0" y="4" style="font-family: Arial, sans-serif; font-size: 10px; fill: black; font-weight: bold;">Bass Drum</tspan></text><text transform="rotate(-81.08910891089108) translate(283.3333333333333,0) rotate(0)"><tspan x="0" y="4" style="font-family: Arial, sans-serif; font-size: 10px; fill: black; font-weight: bold;">Bassoons</tspan></text><text transform="rotate(-77.52475247524752) translate(283.3333333333333,0) rotate(0)"><tspan x="0" y="4" style="font-family: Arial, sans-serif; font-size: 10px; fill: black; font-weight: bold;">Celesta</tspan></text><text transform="rotate(-73.96039603960396) translate(283.3333333333333,0) rotate(0)"><tspan x="0" y="4" style="font-family: Arial, sans-serif; font-size: 10px; fill: black; font-weight: bold;">Cellos</tspan></text><text transform="rotate(-70.39603960396039) translate(283.3333333333333,0) rotate(0)"><tspan x="0" y="4" style="font-family: Arial, sans-serif; font-size: 10px; fill: black; font-weight: bold;">Clarinets</tspan></text><text transform="rotate(-66.83168316831683) translate(283.3333333333333,0) rotate(0)"><tspan x="0" y="4" style="font-family: Arial, sans-serif; font-size: 10px; fill: black; font-weight: bold;">Cymbals</tspan></text><text transform="rotate(-63.26732673267327) translate(283.3333333333333,0) rotate(0)"><tspan x="0" y="4" style="font-family: Arial, sans-serif; font-size: 10px; fill: black; font-weight: bold;">Double basses</tspan></text><text transform="rotate(-59.70297029702971) translate(283.3333333333333,0) rotate(0)"><tspan x="0" y="4" style="font-family: Arial, sans-serif; font-size: 10px; fill: black; font-weight: bold;">Flutes</tspan></text><text transform="rotate(-56.13861386138615) translate(283.3333333333333,0) rotate(0)"><tspan x="0" y="4" style="font-family: Arial, sans-serif; font-size: 10px; fill: black; font-weight: bold;">French Horns</tspan></text><text transform="rotate(-52.57425742574257) translate(283.3333333333333,0) rotate(0)"><tspan x="0" y="4" style="font-family: Arial, sans-serif; font-size: 10px; fill: black; font-weight: bold;">Glockenspiel</tspan></text><text transform="rotate(-49.00990099009902) translate(283.3333333333333,0) rotate(0)"><tspan x="0" y="4" style="font-family: Arial, sans-serif; font-size: 10px; fill: black; font-weight: bold;">Harps</tspan></text><text transform="rotate(-45.44554455445545) translate(283.3333333333333,0) rotate(0)"><tspan x="0" y="4" style="font-family: Arial, sans-serif; font-size: 10px; fill: black; font-weight: bold;">Marimba</tspan></text><text transform="rotate(-41.88118811881189) translate(283.3333333333333,0) rotate(0)"><tspan x="0" y="4" style="font-family: Arial, sans-serif; font-size: 10px; fill: black; font-weight: bold;">Oboes</tspan></text><text transform="rotate(-38.316831683168324) translate(283.3333333333333,0) rotate(0)"><tspan x="0" y="4" style="font-family: Arial, sans-serif; font-size: 10px; fill: black; font-weight: bold;">Piano</tspan></text><text transform="rotate(-34.752475247524764) translate(283.3333333333333,0) rotate(0)"><tspan x="0" y="4" style="font-family: Arial, sans-serif; font-size: 10px; fill: black; font-weight: bold;">Pipe organ</tspan></text><text transform="rotate(-31.188118811881196) translate(283.3333333333333,0) rotate(0)"><tspan x="0" y="4" style="font-family: Arial, sans-serif; font-size: 10px; fill: black; font-weight: bold;">Snare Drum</tspan></text><text transform="rotate(-27.623762376237636) translate(283.3333333333333,0) rotate(0)"><tspan x="0" y="4" style="font-family: Arial, sans-serif; font-size: 10px; fill: black; font-weight: bold;">Tam-tam</tspan></text><text transform="rotate(-24.05940594059406) translate(283.3333333333333,0) rotate(0)"><tspan x="0" y="4" style="font-family: Arial, sans-serif; font-size: 10px; fill: black; font-weight: bold;">Tambourine</tspan></text><text transform="rotate(-20.4950495049505) translate(283.3333333333333,0) rotate(0)"><tspan x="0" y="4" style="font-family: Arial, sans-serif; font-size: 10px; fill: black; font-weight: bold;">Tenor drum</tspan></text><text transform="rotate(-16.930693069306912) translate(283.3333333333333,0) rotate(0)"><tspan x="0" y="4" style="font-family: Arial, sans-serif; font-size: 10px; fill: black; font-weight: bold;">Timpani</tspan></text><text transform="rotate(-13.366336633663352) translate(283.3333333333333,0) rotate(0)"><tspan x="0" y="4" style="font-family: Arial, sans-serif; font-size: 10px; fill: black; font-weight: bold;">Triangle</tspan></text><text transform="rotate(-9.801980198019777) translate(283.3333333333333,0) rotate(0)"><tspan x="0" y="4" style="font-family: Arial, sans-serif; font-size: 10px; fill: black; font-weight: bold;">Trombones</tspan></text><text transform="rotate(-6.2376237623762165) translate(283.3333333333333,0) rotate(0)"><tspan x="0" y="4" style="font-family: Arial, sans-serif; font-size: 10px; fill: black; font-weight: bold;">Trumpets</tspan></text><text transform="rotate(-2.673267326732642) translate(283.3333333333333,0) rotate(0)"><tspan x="0" y="4" style="font-family: Arial, sans-serif; font-size: 10px; fill: black; font-weight: bold;">Tubas</tspan></text><text transform="rotate(0.8910891089109327) translate(283.3333333333333,0) rotate(0)"><tspan x="0" y="4" style="font-family: Arial, sans-serif; font-size: 10px; fill: black; font-weight: bold;">Tubular bells</tspan></text><text transform="rotate(4.455445544554493) translate(283.3333333333333,0) rotate(0)"><tspan x="0" y="4" style="font-family: Arial, sans-serif; font-size: 10px; fill: black; font-weight: bold;">Vibraphone</tspan></text><text transform="rotate(8.019801980198068) translate(283.3333333333333,0) rotate(0)"><tspan x="0" y="4" style="font-family: Arial, sans-serif; font-size: 10px; fill: black; font-weight: bold;">Violas</tspan></text><text transform="rotate(11.584158415841657) translate(283.3333333333333,0) rotate(0)"><tspan x="0" y="4" style="font-family: Arial, sans-serif; font-size: 10px; fill: black; font-weight: bold;">Violins 1</tspan></text><text transform="rotate(15.148514851485203) translate(283.3333333333333,0) rotate(0)"><tspan x="0" y="4" style="font-family: Arial, sans-serif; font-size: 10px; fill: black; font-weight: bold;">Violins 2</tspan></text><text transform="rotate(18.71287128712879) translate(283.3333333333333,0) rotate(0)"><tspan x="0" y="4" style="font-family: Arial, sans-serif; font-size: 10px; fill: black; font-weight: bold;">Wood block</tspan></text><text transform="rotate(22.277227722772338) translate(283.3333333333333,0) rotate(0)"><tspan x="0" y="4" style="font-family: Arial, sans-serif; font-size: 10px; fill: black; font-weight: bold;">Xylophone</tspan></text><text transform="rotate(25.841584158415813) translate(283.3333333333333,0) rotate(0)"><tspan x="0" y="4" style="font-family: Arial, sans-serif; font-size: 10px; fill: black; font-weight: bold;">Bass Clarinet</tspan></text><text transform="rotate(29.405940594059402) translate(283.3333333333333,0) rotate(0)"><tspan x="0" y="4" style="font-family: Arial, sans-serif; font-size: 10px; fill: black; font-weight: bold;">Bass Drum</tspan></text><text transform="rotate(32.970297029702934) translate(283.3333333333333,0) rotate(0)"><tspan x="0" y="4" style="font-family: Arial, sans-serif; font-size: 10px; fill: black; font-weight: bold;">Bassoons</tspan></text><text transform="rotate(36.53465346534652) translate(283.3333333333333,0) rotate(0)"><tspan x="0" y="4" style="font-family: Arial, sans-serif; font-size: 10px; fill: black; font-weight: bold;">Cellos</tspan></text><text transform="rotate(40.09900990099004) translate(283.3333333333333,0) rotate(0)"><tspan x="0" y="4" style="font-family: Arial, sans-serif; font-size: 10px; fill: black; font-weight: bold;">Clarinets</tspan></text><text transform="rotate(43.66336633663363) translate(283.3333333333333,0) rotate(0)"><tspan x="0" y="4" style="font-family: Arial, sans-serif; font-size: 10px; fill: black; font-weight: bold;">Contrabassoon</tspan></text><text transform="rotate(47.22772277227716) translate(283.3333333333333,0) rotate(0)"><tspan x="0" y="4" style="font-family: Arial, sans-serif; font-size: 10px; fill: black; font-weight: bold;">Cornet</tspan></text><text transform="rotate(50.79207920792075) translate(283.3333333333333,0) rotate(0)"><tspan x="0" y="4" style="font-family: Arial, sans-serif; font-size: 10px; fill: black; font-weight: bold;">Cymbals</tspan></text><text transform="rotate(54.35643564356428) translate(283.3333333333333,0) rotate(0)"><tspan x="0" y="4" style="font-family: Arial, sans-serif; font-size: 10px; fill: black; font-weight: bold;">Double basses</tspan></text><text transform="rotate(57.92079207920787) translate(283.3333333333333,0) rotate(0)"><tspan x="0" y="4" style="font-family: Arial, sans-serif; font-size: 10px; fill: black; font-weight: bold;">English Horn</tspan></text><text transform="rotate(61.4851485148514) translate(283.3333333333333,0) rotate(0)"><tspan x="0" y="4" style="font-family: Arial, sans-serif; font-size: 10px; fill: black; font-weight: bold;">Flutes</tspan></text><text transform="rotate(65.04950495049496) translate(283.3333333333333,0) rotate(0)"><tspan x="0" y="4" style="font-family: Arial, sans-serif; font-size: 10px; fill: black; font-weight: bold;">French Horns</tspan></text><text transform="rotate(68.6138613861385) translate(283.3333333333333,0) rotate(0)"><tspan x="0" y="4" style="font-family: Arial, sans-serif; font-size: 10px; fill: black; font-weight: bold;">Glockenspiel</tspan></text><text transform="rotate(72.17821782178208) translate(283.3333333333333,0) rotate(0)"><tspan x="0" y="4" style="font-family: Arial, sans-serif; font-size: 10px; fill: black; font-weight: bold;">Harps</tspan></text><text transform="rotate(75.74257425742562) translate(283.3333333333333,0) rotate(0)"><tspan x="0" y="4" style="font-family: Arial, sans-serif; font-size: 10px; fill: black; font-weight: bold;">Oboes</tspan></text><text transform="rotate(79.3069306930692) translate(283.3333333333333,0) rotate(0)"><tspan x="0" y="4" style="font-family: Arial, sans-serif; font-size: 10px; fill: black; font-weight: bold;">Piccolo</tspan></text><text transform="rotate(82.87128712871271) translate(283.3333333333333,0) rotate(0)"><tspan x="0" y="4" style="font-family: Arial, sans-serif; font-size: 10px; fill: black; font-weight: bold;">Snare Drum</tspan></text><text transform="rotate(86.4356435643563) translate(283.3333333333333,0) rotate(0)"><tspan x="0" y="4" style="font-family: Arial, sans-serif; font-size: 10px; fill: black; font-weight: bold;">Tambourine</tspan></text><text transform="rotate(89.99999999999986) translate(283.3333333333333,0) rotate(0)"><tspan x="0" y="4" style="font-family: Arial, sans-serif; font-size: 10px; fill: black; font-weight: bold;">Timpani</tspan></text><text transform="rotate(93.56435643564345) translate(283.3333333333333,0) rotate(180)"><tspan x="0" y="4" style="font-family: Arial, sans-serif; font-size: 10px; fill: black; font-weight: bold;">Triangle</tspan></text><text transform="rotate(97.12871287128695) translate(283.3333333333333,0) rotate(180)"><tspan x="0" y="4" style="font-family: Arial, sans-serif; font-size: 10px; fill: black; font-weight: bold;">Trombones</tspan></text><text transform="rotate(100.69306930693054) translate(283.3333333333333,0) rotate(180)"><tspan x="0" y="4" style="font-family: Arial, sans-serif; font-size: 10px; fill: black; font-weight: bold;">Trumpets</tspan></text><text transform="rotate(104.25742574257407) translate(283.3333333333333,0) rotate(180)"><tspan x="0" y="4" style="font-family: Arial, sans-serif; font-size: 10px; fill: black; font-weight: bold;">Tubas</tspan></text><text transform="rotate(107.82178217821766) translate(283.3333333333333,0) rotate(180)"><tspan x="0" y="4" style="font-family: Arial, sans-serif; font-size: 10px; fill: black; font-weight: bold;">Violas</tspan></text><text transform="rotate(111.38613861386119) translate(283.3333333333333,0) rotate(180)"><tspan x="0" y="4" style="font-family: Arial, sans-serif; font-size: 10px; fill: black; font-weight: bold;">Violins 1</tspan></text><text transform="rotate(114.95049504950478) translate(283.3333333333333,0) rotate(180)"><tspan x="0" y="4" style="font-family: Arial, sans-serif; font-size: 10px; fill: black; font-weight: bold;">Violins 2</tspan></text><text transform="rotate(118.51485148514851) translate(283.3333333333333,0) rotate(180)"><tspan x="0" y="4" style="font-family: Arial, sans-serif; font-size: 10px; fill: black; font-weight: bold;">Bass Clarinet</tspan></text><text transform="rotate(122.07920792079204) translate(283.3333333333333,0) rotate(180)"><tspan x="0" y="4" style="font-family: Arial, sans-serif; font-size: 10px; fill: black; font-weight: bold;">Bass Drum</tspan></text><text transform="rotate(125.64356435643563) translate(283.3333333333333,0) rotate(180)"><tspan x="0" y="4" style="font-family: Arial, sans-serif; font-size: 10px; fill: black; font-weight: bold;">Bassoons</tspan></text><text transform="rotate(129.20792079207914) translate(283.3333333333333,0) rotate(180)"><tspan x="0" y="4" style="font-family: Arial, sans-serif; font-size: 10px; fill: black; font-weight: bold;">Celesta</tspan></text><text transform="rotate(132.77227722772273) translate(283.3333333333333,0) rotate(180)"><tspan x="0" y="4" style="font-family: Arial, sans-serif; font-size: 10px; fill: black; font-weight: bold;">Cellos</tspan></text><text transform="rotate(136.33663366336629) translate(283.3333333333333,0) rotate(180)"><tspan x="0" y="4" style="font-family: Arial, sans-serif; font-size: 10px; fill: black; font-weight: bold;">Chimes</tspan></text><text transform="rotate(139.90099009900987) translate(283.3333333333333,0) rotate(180)"><tspan x="0" y="4" style="font-family: Arial, sans-serif; font-size: 10px; fill: black; font-weight: bold;">Clarinets</tspan></text><text transform="rotate(143.46534653465343) translate(283.3333333333333,0) rotate(180)"><tspan x="0" y="4" style="font-family: Arial, sans-serif; font-size: 10px; fill: black; font-weight: bold;">Contrabassoon</tspan></text><text transform="rotate(147.029702970297) translate(283.3333333333333,0) rotate(180)"><tspan x="0" y="4" style="font-family: Arial, sans-serif; font-size: 10px; fill: black; font-weight: bold;">Cymbals</tspan></text><text transform="rotate(150.59405940594058) translate(283.3333333333333,0) rotate(180)"><tspan x="0" y="4" style="font-family: Arial, sans-serif; font-size: 10px; fill: black; font-weight: bold;">Double basses</tspan></text><text transform="rotate(154.15841584158417) translate(283.3333333333333,0) rotate(180)"><tspan x="0" y="4" style="font-family: Arial, sans-serif; font-size: 10px; fill: black; font-weight: bold;">English Horn</tspan></text><text transform="rotate(157.72277227722776) translate(283.3333333333333,0) rotate(180)"><tspan x="0" y="4" style="font-family: Arial, sans-serif; font-size: 10px; fill: black; font-weight: bold;">Flutes</tspan></text><text transform="rotate(161.28712871287135) translate(283.3333333333333,0) rotate(180)"><tspan x="0" y="4" style="font-family: Arial, sans-serif; font-size: 10px; fill: black; font-weight: bold;">French Horns</tspan></text><text transform="rotate(164.85148514851494) translate(283.3333333333333,0) rotate(180)"><tspan x="0" y="4" style="font-family: Arial, sans-serif; font-size: 10px; fill: black; font-weight: bold;">Glockenspiel</tspan></text><text transform="rotate(168.4158415841585) translate(283.3333333333333,0) rotate(180)"><tspan x="0" y="4" style="font-family: Arial, sans-serif; font-size: 10px; fill: black; font-weight: bold;">Harps</tspan></text><text transform="rotate(171.98019801980212) translate(283.3333333333333,0) rotate(180)"><tspan x="0" y="4" style="font-family: Arial, sans-serif; font-size: 10px; fill: black; font-weight: bold;">Oboes</tspan></text><text transform="rotate(175.54455445544568) translate(283.3333333333333,0) rotate(180)"><tspan x="0" y="4" style="font-family: Arial, sans-serif; font-size: 10px; fill: black; font-weight: bold;">Piano</tspan></text><text transform="rotate(179.10891089108924) translate(283.3333333333333,0) rotate(180)"><tspan x="0" y="4" style="font-family: Arial, sans-serif; font-size: 10px; fill: black; font-weight: bold;">Piccolo</tspan></text><text transform="rotate(182.67326732673286) translate(283.3333333333333,0) rotate(180)"><tspan x="0" y="4" style="font-family: Arial, sans-serif; font-size: 10px; fill: black; font-weight: bold;">Snare Drum</tspan></text><text transform="rotate(186.23762376237642) translate(283.3333333333333,0) rotate(180)"><tspan x="0" y="4" style="font-family: Arial, sans-serif; font-size: 10px; fill: black; font-weight: bold;">Tam-tam</tspan></text><text transform="rotate(189.80198019802003) translate(283.3333333333333,0) rotate(180)"><tspan x="0" y="4" style="font-family: Arial, sans-serif; font-size: 10px; fill: black; font-weight: bold;">Tambourine</tspan></text><text transform="rotate(193.3663366336636) translate(283.3333333333333,0) rotate(180)"><tspan x="0" y="4" style="font-family: Arial, sans-serif; font-size: 10px; fill: black; font-weight: bold;">Timpani</tspan></text><text transform="rotate(196.93069306930715) translate(283.3333333333333,0) rotate(180)"><tspan x="0" y="4" style="font-family: Arial, sans-serif; font-size: 10px; fill: black; font-weight: bold;">Triangle</tspan></text><text transform="rotate(200.49504950495077) translate(283.3333333333333,0) rotate(180)"><tspan x="0" y="4" style="font-family: Arial, sans-serif; font-size: 10px; fill: black; font-weight: bold;">Trombones</tspan></text><text transform="rotate(204.05940594059433) translate(283.3333333333333,0) rotate(180)"><tspan x="0" y="4" style="font-family: Arial, sans-serif; font-size: 10px; fill: black; font-weight: bold;">Trumpets</tspan></text><text transform="rotate(207.6237623762379) translate(283.3333333333333,0) rotate(180)"><tspan x="0" y="4" style="font-family: Arial, sans-serif; font-size: 10px; fill: black; font-weight: bold;">Tubas</tspan></text><text transform="rotate(211.1881188118815) translate(283.3333333333333,0) rotate(180)"><tspan x="0" y="4" style="font-family: Arial, sans-serif; font-size: 10px; fill: black; font-weight: bold;">Violas</tspan></text><text transform="rotate(214.75247524752507) translate(283.3333333333333,0) rotate(180)"><tspan x="0" y="4" style="font-family: Arial, sans-serif; font-size: 10px; fill: black; font-weight: bold;">Violins 1</tspan></text><text transform="rotate(218.3168316831687) translate(283.3333333333333,0) rotate(180)"><tspan x="0" y="4" style="font-family: Arial, sans-serif; font-size: 10px; fill: black; font-weight: bold;">Violins 2</tspan></text><text transform="rotate(221.88118811881225) translate(283.3333333333333,0) rotate(180)"><tspan x="0" y="4" style="font-family: Arial, sans-serif; font-size: 10px; fill: black; font-weight: bold;">Wagner Tuba</tspan></text><text transform="rotate(225.44554455445586) translate(283.3333333333333,0) rotate(180)"><tspan x="0" y="4" style="font-family: Arial, sans-serif; font-size: 10px; fill: black; font-weight: bold;">Xylophone</tspan></text><text transform="rotate(229.00990099009897) translate(283.3333333333333,0) rotate(180)"><tspan x="0" y="4" style="font-family: Arial, sans-serif; font-size: 10px; fill: black; font-weight: bold;">Bassoons</tspan></text><text transform="rotate(232.5742574257426) translate(283.3333333333333,0) rotate(180)"><tspan x="0" y="4" style="font-family: Arial, sans-serif; font-size: 10px; fill: black; font-weight: bold;">Cellos</tspan></text><text transform="rotate(236.1386138613862) translate(283.3333333333333,0) rotate(180)"><tspan x="0" y="4" style="font-family: Arial, sans-serif; font-size: 10px; fill: black; font-weight: bold;">Clarinets</tspan></text><text transform="rotate(239.70297029702976) translate(283.3333333333333,0) rotate(180)"><tspan x="0" y="4" style="font-family: Arial, sans-serif; font-size: 10px; fill: black; font-weight: bold;">Double basses</tspan></text><text transform="rotate(243.26732673267333) translate(283.3333333333333,0) rotate(180)"><tspan x="0" y="4" style="font-family: Arial, sans-serif; font-size: 10px; fill: black; font-weight: bold;">Flutes</tspan></text><text transform="rotate(246.83168316831694) translate(283.3333333333333,0) rotate(180)"><tspan x="0" y="4" style="font-family: Arial, sans-serif; font-size: 10px; fill: black; font-weight: bold;">French Horns</tspan></text><text transform="rotate(250.3960396039605) translate(283.3333333333333,0) rotate(180)"><tspan x="0" y="4" style="font-family: Arial, sans-serif; font-size: 10px; fill: black; font-weight: bold;">Oboes</tspan></text><text transform="rotate(253.96039603960412) translate(283.3333333333333,0) rotate(180)"><tspan x="0" y="4" style="font-family: Arial, sans-serif; font-size: 10px; fill: black; font-weight: bold;">Timpani</tspan></text><text transform="rotate(257.5247524752477) translate(283.3333333333333,0) rotate(180)"><tspan x="0" y="4" style="font-family: Arial, sans-serif; font-size: 10px; fill: black; font-weight: bold;">Trumpets</tspan></text><text transform="rotate(261.0891089108913) translate(283.3333333333333,0) rotate(180)"><tspan x="0" y="4" style="font-family: Arial, sans-serif; font-size: 10px; fill: black; font-weight: bold;">Violas</tspan></text><text transform="rotate(264.6534653465348) translate(283.3333333333333,0) rotate(180)"><tspan x="0" y="4" style="font-family: Arial, sans-serif; font-size: 10px; fill: black; font-weight: bold;">Violins 1</tspan></text><text transform="rotate(268.21782178217836) translate(283.3333333333333,0) rotate(180)"><tspan x="0" y="4" style="font-family: Arial, sans-serif; font-size: 10px; fill: black; font-weight: bold;">Violins 2</tspan></text></g></svg>